<svg width="1002" height="496" viewBox="0 0 1002 496" fill="none" xmlns="http://www.w3.org/2000/svg">
<g opacity="0.29827">
<path d="M1008.08 163.448L443.182 -356.858V-747.19L28.1096 -770C24.9043 -762.456 4.36709 -740.714 7.57176 -728.596C11.43 -714.102 30.8387 -718.735 36.4776 -709.409C43.0661 -698.42 31.7291 -653.749 28.3457 -640.86C21.8759 -616.445 7.09676 -596.665 2.82235 -572.25C-4.35982 -531.263 10.1824 -534.53 37.7242 -508.927C84.141 -465.742 46.9244 -420.952 58.6176 -370.223C68.1146 -328.878 109.605 -307.554 124.8 -266.211C136.553 -234.37 152.697 -226.233 177.746 -202.947C177.153 -217.084 164.51 -258.785 188.253 -255.102C211.817 -251.478 202.736 -216.669 207.247 -202.115C211.045 -189.997 237.933 -165.761 215.616 -154.593C208.196 -150.91 187.066 -165.582 178.577 -169.503C184.572 -150.791 180.774 -131.367 190.271 -113.487C201.608 -92.162 213.835 -100.359 228.853 -88.7754C244.344 -76.8355 242.683 -63.1137 235.797 -45.0554C228.615 -26.2247 221.196 -29.1352 232.592 -6.44342C240.843 9.95119 254.85 30.7421 266.9 43.2164C273.904 50.4634 281.502 52.1267 288.506 61.3932C294.323 69.1155 292.067 79.2142 299.012 86.1638C310.883 98.1037 331.006 98.282 340.384 113.904C350.831 131.309 338.96 144.437 369.706 142.833C371.309 177.643 377.897 209.185 377.541 243.994C394.695 250.825 422.414 242.687 440.399 239.063C458.266 263.18 481.355 246.429 501.774 259.558C510.678 265.26 508.837 279.517 514.239 284.506C525.339 294.723 533.529 288.308 547.301 291.872C557.51 294.486 565.404 301.97 575.138 304.703C584.338 307.257 599.475 301.258 606.301 309.396C614.492 319.138 600.78 336.958 613.127 344.799C623.395 351.333 638.115 335.77 648.088 338.027C659.721 340.7 693.079 371.174 701.271 381.212C710.59 392.677 719.969 414.062 725.25 428.793C733.501 451.841 732.373 463.127 749.408 479.998C760.27 490.75 749.942 491.522 767.63 494.67C779.204 496.749 794.518 488.374 806.212 487.067C830.549 484.394 855.122 489.027 879.102 484.453C901.421 480.176 922.729 473.166 945.64 469.899C965.465 467.048 1000.37 469.246 1017.94 459.801C1036.99 449.643 1038.71 426.654 1011.17 430.932C1008.97 416.26 1018.77 396.003 1007.85 385.847C1023.04 365.056 1028.56 350.384 1030.93 324.959C1032 313.792 1032.48 301.436 1038 292.05C1043.4 282.783 1058.59 277.259 1061.56 269.299C1066.13 256.943 1058.83 251.419 1053.25 244.528C1049.69 240.073 1039.54 242.212 1036.63 238.291C1031.23 231.103 1036.57 223.678 1033.6 216.431C1024.94 195.462 1014.61 187.205 1008.08 163.444C1008.26 167.424 1008.44 171.463 1008.2 175.384" stroke="white" stroke-width="2" stroke-linecap="round" stroke-linejoin="round"/>
</g>
<path d="M731 84.5C779 157.3 772.437 182.536 750.5 186C712.5 192 737.3 261 772.5 261C807.7 261 856 271.5 834.5 325.5C826 355.5 759.512 347.313 753.5 378.5C745.5 420 780.5 462.5 731 470" stroke="white" stroke-width="2"/>
<path fill-rule="evenodd" clip-rule="evenodd" d="M570 319C571.657 319 573 317.657 573 316C573 314.343 571.657 313 570 313C568.343 313 567 314.343 567 316C567 317.657 568.343 319 570 319Z" fill="#4AF6CD"/>
<path fill-rule="evenodd" clip-rule="evenodd" d="M661 363C662.657 363 664 361.657 664 360C664 358.343 662.657 357 661 357C659.343 357 658 358.343 658 360C658 361.657 659.343 363 661 363Z" fill="#4AF6CD"/>
<path fill-rule="evenodd" clip-rule="evenodd" d="M728.5 478C732.09 478 735 475.09 735 471.5C735 467.91 732.09 465 728.5 465C724.91 465 722 467.91 722 471.5C722 475.09 724.91 478 728.5 478Z" fill="#4AF6CD"/>
<path fill-rule="evenodd" clip-rule="evenodd" d="M729.5 91C733.09 91 736 88.0899 736 84.5C736 80.9101 733.09 78 729.5 78C725.91 78 723 80.9101 723 84.5C723 88.0899 725.91 91 729.5 91Z" fill="#4AF6CD"/>
<path fill-rule="evenodd" clip-rule="evenodd" d="M365 228C366.657 228 368 226.657 368 225C368 223.343 366.657 222 365 222C363.343 222 362 223.343 362 225C362 226.657 363.343 228 365 228Z" fill="#4AF6CD"/>
<path d="M553.021 462.976L552.845 464.192H548.573V467.792H552.285V469.008H548.573V472.784H553.149V474H547.053V462.976H553.021ZM561.028 472.032C561.028 472.373 561.087 472.629 561.204 472.8C561.321 472.96 561.497 473.083 561.732 473.168L561.396 474.192C560.959 474.139 560.607 474.016 560.34 473.824C560.073 473.632 559.876 473.333 559.748 472.928C559.183 473.771 558.345 474.192 557.236 474.192C556.404 474.192 555.748 473.957 555.268 473.488C554.788 473.019 554.548 472.405 554.548 471.648C554.548 470.752 554.868 470.064 555.508 469.584C556.159 469.104 557.076 468.864 558.26 468.864H559.556V468.24C559.556 467.643 559.412 467.216 559.124 466.96C558.836 466.704 558.393 466.576 557.796 466.576C557.177 466.576 556.42 466.725 555.524 467.024L555.156 465.952C556.201 465.568 557.172 465.376 558.068 465.376C559.06 465.376 559.801 465.621 560.292 466.112C560.783 466.592 561.028 467.28 561.028 468.176V472.032ZM557.572 473.088C558.415 473.088 559.076 472.651 559.556 471.776V469.84H558.452C556.895 469.84 556.116 470.416 556.116 471.568C556.116 472.069 556.239 472.448 556.484 472.704C556.729 472.96 557.092 473.088 557.572 473.088ZM566.183 465.376C566.759 465.376 567.276 465.456 567.735 465.616C568.194 465.776 568.631 466.016 569.047 466.336L568.423 467.264C568.039 467.019 567.671 466.837 567.319 466.72C566.978 466.603 566.615 466.544 566.231 466.544C565.751 466.544 565.372 466.645 565.095 466.848C564.818 467.04 564.679 467.307 564.679 467.648C564.679 467.989 564.807 468.256 565.063 468.448C565.33 468.64 565.804 468.827 566.487 469.008C567.426 469.243 568.124 469.563 568.583 469.968C569.052 470.373 569.287 470.928 569.287 471.632C569.287 472.464 568.962 473.099 568.311 473.536C567.671 473.973 566.887 474.192 565.959 474.192C564.679 474.192 563.618 473.824 562.775 473.088L563.559 472.192C564.274 472.736 565.063 473.008 565.927 473.008C566.482 473.008 566.919 472.896 567.239 472.672C567.57 472.437 567.735 472.123 567.735 471.728C567.735 471.44 567.676 471.211 567.559 471.04C567.442 470.859 567.239 470.704 566.951 470.576C566.663 470.437 566.242 470.293 565.687 470.144C564.791 469.909 564.14 469.595 563.735 469.2C563.34 468.805 563.143 468.304 563.143 467.696C563.143 467.259 563.271 466.864 563.527 466.512C563.794 466.149 564.156 465.872 564.615 465.68C565.084 465.477 565.607 465.376 566.183 465.376ZM575.62 473.616C575.065 474 574.436 474.192 573.732 474.192C573.017 474.192 572.457 473.989 572.052 473.584C571.657 473.168 571.46 472.571 571.46 471.792V466.704H569.988V465.568H571.46V463.664L572.932 463.488V465.568H574.932L574.772 466.704H572.932V471.728C572.932 472.165 573.006 472.485 573.156 472.688C573.316 472.88 573.577 472.976 573.94 472.976C574.27 472.976 574.644 472.864 575.06 472.64L575.62 473.616ZM584.179 462.784C584.915 462.784 585.545 462.891 586.067 463.104C586.59 463.307 587.097 463.627 587.587 464.064L586.755 464.992C586.339 464.661 585.929 464.421 585.523 464.272C585.129 464.112 584.702 464.032 584.243 464.032C583.667 464.032 583.193 464.165 582.819 464.432C582.446 464.699 582.259 465.088 582.259 465.6C582.259 465.92 582.323 466.192 582.451 466.416C582.579 466.629 582.814 466.827 583.155 467.008C583.507 467.189 584.014 467.381 584.675 467.584C585.369 467.797 585.945 468.027 586.403 468.272C586.862 468.517 587.23 468.859 587.507 469.296C587.795 469.723 587.939 470.267 587.939 470.928C587.939 471.568 587.779 472.133 587.459 472.624C587.15 473.115 586.697 473.499 586.099 473.776C585.513 474.053 584.814 474.192 584.003 474.192C582.478 474.192 581.23 473.717 580.259 472.768L581.091 471.84C581.539 472.203 581.993 472.48 582.451 472.672C582.91 472.853 583.422 472.944 583.987 472.944C584.67 472.944 585.235 472.779 585.683 472.448C586.131 472.107 586.355 471.616 586.355 470.976C586.355 470.613 586.286 470.315 586.147 470.08C586.009 469.835 585.769 469.616 585.427 469.424C585.097 469.232 584.611 469.04 583.971 468.848C582.841 468.507 582.014 468.096 581.491 467.616C580.969 467.136 580.707 466.485 580.707 465.664C580.707 465.109 580.851 464.613 581.139 464.176C581.438 463.739 581.849 463.397 582.371 463.152C582.905 462.907 583.507 462.784 584.179 462.784ZM594.066 465.376C594.834 465.376 595.431 465.605 595.858 466.064C596.295 466.523 596.514 467.152 596.514 467.952V474H595.042V468.16C595.042 467.563 594.925 467.141 594.69 466.896C594.466 466.651 594.135 466.528 593.698 466.528C593.261 466.528 592.871 466.656 592.53 466.912C592.189 467.168 591.869 467.531 591.57 468V474H590.098V462.192L591.57 462.032V466.736C592.231 465.829 593.063 465.376 594.066 465.376ZM602.641 465.376C603.825 465.376 604.742 465.771 605.393 466.56C606.054 467.349 606.385 468.421 606.385 469.776C606.385 470.651 606.236 471.424 605.937 472.096C605.638 472.757 605.206 473.275 604.641 473.648C604.076 474.011 603.404 474.192 602.625 474.192C601.441 474.192 600.518 473.797 599.857 473.008C599.196 472.219 598.865 471.147 598.865 469.792C598.865 468.917 599.014 468.149 599.313 467.488C599.612 466.816 600.044 466.299 600.609 465.936C601.174 465.563 601.852 465.376 602.641 465.376ZM602.641 466.56C601.18 466.56 600.449 467.637 600.449 469.792C600.449 471.936 601.174 473.008 602.625 473.008C604.076 473.008 604.801 471.931 604.801 469.776C604.801 467.632 604.081 466.56 602.641 466.56ZM612.481 465.376C612.78 465.376 613.057 465.408 613.313 465.472L613.041 466.912C612.785 466.848 612.54 466.816 612.305 466.816C611.782 466.816 611.361 467.008 611.041 467.392C610.721 467.776 610.47 468.373 610.289 469.184V474H608.817V465.568H610.081L610.225 467.28C610.449 466.651 610.753 466.176 611.137 465.856C611.521 465.536 611.969 465.376 612.481 465.376ZM620.872 469.536C620.872 469.781 620.862 470.032 620.84 470.288H615.464C615.528 471.216 615.763 471.899 616.168 472.336C616.574 472.773 617.096 472.992 617.736 472.992C618.142 472.992 618.515 472.933 618.856 472.816C619.198 472.699 619.555 472.512 619.928 472.256L620.568 473.136C619.672 473.84 618.691 474.192 617.624 474.192C616.451 474.192 615.534 473.808 614.872 473.04C614.222 472.272 613.896 471.216 613.896 469.872C613.896 468.997 614.035 468.224 614.312 467.552C614.6 466.869 615.006 466.336 615.528 465.952C616.062 465.568 616.686 465.376 617.4 465.376C618.52 465.376 619.379 465.744 619.976 466.48C620.574 467.216 620.872 468.235 620.872 469.536ZM619.416 469.104C619.416 468.272 619.251 467.637 618.92 467.2C618.59 466.763 618.094 466.544 617.432 466.544C616.227 466.544 615.571 467.429 615.464 469.2H619.416V469.104ZM629.41 461.184V475.568H629.058V461.184H629.41ZM648.237 474H646.765L646.381 469.024C646.221 467.072 646.131 465.573 646.109 464.528L643.725 472.752H642.301L639.789 464.512C639.789 465.845 639.72 467.387 639.581 469.136L639.213 474H637.773L638.685 462.976H640.733L643.053 470.992L645.261 462.976H647.325L648.237 474ZM656.434 472.032C656.434 472.373 656.493 472.629 656.61 472.8C656.728 472.96 656.904 473.083 657.138 473.168L656.802 474.192C656.365 474.139 656.013 474.016 655.746 473.824C655.48 473.632 655.282 473.333 655.154 472.928C654.589 473.771 653.752 474.192 652.642 474.192C651.81 474.192 651.154 473.957 650.674 473.488C650.194 473.019 649.954 472.405 649.954 471.648C649.954 470.752 650.274 470.064 650.914 469.584C651.565 469.104 652.482 468.864 653.666 468.864H654.962V468.24C654.962 467.643 654.818 467.216 654.53 466.96C654.242 466.704 653.8 466.576 653.202 466.576C652.584 466.576 651.826 466.725 650.93 467.024L650.562 465.952C651.608 465.568 652.578 465.376 653.474 465.376C654.466 465.376 655.208 465.621 655.698 466.112C656.189 466.592 656.434 467.28 656.434 468.176V472.032ZM652.978 473.088C653.821 473.088 654.482 472.651 654.962 471.776V469.84H653.858C652.301 469.84 651.522 470.416 651.522 471.568C651.522 472.069 651.645 472.448 651.89 472.704C652.136 472.96 652.498 473.088 652.978 473.088ZM660.981 474.192C660.437 474.192 660.005 474.032 659.685 473.712C659.376 473.381 659.221 472.923 659.221 472.336V462.176L660.693 462V472.304C660.693 472.539 660.731 472.709 660.805 472.816C660.891 472.923 661.029 472.976 661.221 472.976C661.424 472.976 661.605 472.944 661.765 472.88L662.149 473.904C661.797 474.096 661.408 474.192 660.981 474.192ZM665.461 465.568V474H663.989V465.568H665.461ZM664.709 461.52C665.018 461.52 665.269 461.616 665.461 461.808C665.653 462 665.749 462.24 665.749 462.528C665.749 462.816 665.653 463.056 665.461 463.248C665.269 463.429 665.018 463.52 664.709 463.52C664.41 463.52 664.165 463.429 663.973 463.248C663.781 463.056 663.685 462.816 663.685 462.528C663.685 462.24 663.781 462 663.973 461.808C664.165 461.616 664.41 461.52 664.709 461.52ZM672.36 465.376C673.32 465.376 674.083 465.765 674.648 466.544C675.214 467.312 675.496 468.389 675.496 469.776C675.496 470.651 675.363 471.424 675.096 472.096C674.83 472.757 674.446 473.275 673.944 473.648C673.443 474.011 672.856 474.192 672.184 474.192C671.299 474.192 670.552 473.819 669.944 473.072L669.8 474H668.504V462.176L669.976 462V466.624C670.584 465.792 671.379 465.376 672.36 465.376ZM671.832 473.024C672.483 473.024 672.99 472.763 673.352 472.24C673.726 471.707 673.912 470.885 673.912 469.776C673.912 468.635 673.742 467.813 673.4 467.312C673.059 466.8 672.574 466.544 671.944 466.544C671.198 466.544 670.542 466.981 669.976 467.856V471.888C670.2 472.24 670.472 472.517 670.792 472.72C671.123 472.923 671.47 473.024 671.832 473.024ZM684.276 474H683.012L682.9 472.688C682.58 473.211 682.212 473.595 681.796 473.84C681.38 474.075 680.874 474.192 680.276 474.192C679.54 474.192 678.964 473.968 678.548 473.52C678.132 473.072 677.924 472.437 677.924 471.616V465.568H679.396V471.456C679.396 472.032 679.498 472.443 679.7 472.688C679.903 472.923 680.234 473.04 680.692 473.04C681.514 473.04 682.218 472.555 682.804 471.584V465.568H684.276V474ZM687.701 471.968C688.021 471.968 688.288 472.075 688.501 472.288C688.714 472.501 688.821 472.763 688.821 473.072C688.821 473.403 688.725 473.781 688.533 474.208L687.461 476.656H686.405L687.045 474C686.906 473.893 686.794 473.76 686.709 473.6C686.634 473.44 686.597 473.264 686.597 473.072C686.597 472.763 686.704 472.501 686.917 472.288C687.13 472.075 687.392 471.968 687.701 471.968ZM699.331 462.784C699.992 462.784 700.547 462.869 700.995 463.04C701.454 463.211 701.918 463.488 702.387 463.872L701.555 464.848C700.883 464.304 700.174 464.032 699.427 464.032C698.51 464.032 697.768 464.384 697.203 465.088C696.648 465.792 696.371 466.923 696.371 468.48C696.371 469.995 696.648 471.115 697.203 471.84C697.758 472.555 698.494 472.912 699.411 472.912C699.88 472.912 700.291 472.832 700.643 472.672C700.995 472.512 701.368 472.288 701.763 472L702.515 472.96C702.174 473.312 701.736 473.605 701.203 473.84C700.67 474.075 700.056 474.192 699.363 474.192C698.467 474.192 697.667 473.973 696.963 473.536C696.27 473.088 695.726 472.437 695.331 471.584C694.947 470.72 694.755 469.685 694.755 468.48C694.755 467.275 694.958 466.245 695.363 465.392C695.768 464.528 696.318 463.877 697.011 463.44C697.704 463.003 698.478 462.784 699.331 462.784ZM710.3 474L709.468 471.232H705.292L704.46 474H702.924L706.46 462.976H708.38L711.9 474H710.3ZM705.66 470H709.1L707.388 464.24L705.66 470Z" fill="white"/>
<path d="M598.378 75.784C599.039 75.784 599.594 75.8693 600.042 76.04C600.501 76.2107 600.965 76.488 601.434 76.872L600.602 77.848C599.93 77.304 599.221 77.032 598.474 77.032C597.557 77.032 596.815 77.384 596.25 78.088C595.695 78.792 595.418 79.9227 595.418 81.48C595.418 82.9947 595.695 84.1147 596.25 84.84C596.805 85.5547 597.541 85.912 598.458 85.912C598.927 85.912 599.338 85.832 599.69 85.672C600.042 85.512 600.415 85.288 600.81 85L601.562 85.96C601.221 86.312 600.783 86.6053 600.25 86.84C599.717 87.0747 599.103 87.192 598.41 87.192C597.514 87.192 596.714 86.9733 596.01 86.536C595.317 86.088 594.773 85.4373 594.378 84.584C593.994 83.72 593.802 82.6853 593.802 81.48C593.802 80.2747 594.005 79.2453 594.41 78.392C594.815 77.528 595.365 76.8773 596.058 76.44C596.751 76.0027 597.525 75.784 598.378 75.784ZM609.401 87H608.137L608.025 85.688C607.705 86.2107 607.337 86.5947 606.921 86.84C606.505 87.0747 605.999 87.192 605.401 87.192C604.665 87.192 604.089 86.968 603.673 86.52C603.257 86.072 603.049 85.4373 603.049 84.616V78.568H604.521V84.456C604.521 85.032 604.623 85.4427 604.825 85.688C605.028 85.9227 605.359 86.04 605.817 86.04C606.639 86.04 607.343 85.5547 607.929 84.584V78.568H609.401V87ZM616.106 78.376C616.405 78.376 616.682 78.408 616.938 78.472L616.666 79.912C616.41 79.848 616.165 79.816 615.93 79.816C615.407 79.816 614.986 80.008 614.666 80.392C614.346 80.776 614.095 81.3733 613.914 82.184V87H612.442V78.568H613.706L613.85 80.28C614.074 79.6507 614.378 79.176 614.762 78.856C615.146 78.536 615.594 78.376 616.106 78.376ZM622.278 78.376C622.576 78.376 622.854 78.408 623.11 78.472L622.838 79.912C622.582 79.848 622.336 79.816 622.102 79.816C621.579 79.816 621.158 80.008 620.838 80.392C620.518 80.776 620.267 81.3733 620.086 82.184V87H618.614V78.568H619.878L620.022 80.28C620.246 79.6507 620.55 79.176 620.934 78.856C621.318 78.536 621.766 78.376 622.278 78.376ZM630.669 82.536C630.669 82.7813 630.659 83.032 630.637 83.288H625.261C625.325 84.216 625.56 84.8987 625.965 85.336C626.371 85.7733 626.893 85.992 627.533 85.992C627.939 85.992 628.312 85.9333 628.653 85.816C628.995 85.6987 629.352 85.512 629.725 85.256L630.365 86.136C629.469 86.84 628.488 87.192 627.421 87.192C626.248 87.192 625.331 86.808 624.669 86.04C624.019 85.272 623.693 84.216 623.693 82.872C623.693 81.9973 623.832 81.224 624.109 80.552C624.397 79.8693 624.803 79.336 625.325 78.952C625.859 78.568 626.483 78.376 627.197 78.376C628.317 78.376 629.176 78.744 629.773 79.48C630.371 80.216 630.669 81.2347 630.669 82.536ZM629.213 82.104C629.213 81.272 629.048 80.6373 628.717 80.2C628.387 79.7627 627.891 79.544 627.229 79.544C626.024 79.544 625.368 80.4293 625.261 82.2H629.213V82.104ZM636.988 78.376C637.756 78.376 638.353 78.6053 638.78 79.064C639.217 79.5227 639.436 80.152 639.436 80.952V87H637.964V81.16C637.964 80.5627 637.852 80.1413 637.628 79.896C637.404 79.6507 637.073 79.528 636.636 79.528C636.188 79.528 635.793 79.656 635.452 79.912C635.111 80.168 634.791 80.536 634.492 81.016V87H633.02V78.568H634.284L634.412 79.816C634.711 79.368 635.079 79.016 635.516 78.76C635.964 78.504 636.455 78.376 636.988 78.376ZM646.651 86.616C646.096 87 645.467 87.192 644.763 87.192C644.048 87.192 643.488 86.9893 643.083 86.584C642.688 86.168 642.491 85.5707 642.491 84.792V79.704H641.019V78.568H642.491V76.664L643.963 76.488V78.568H645.963L645.803 79.704H643.963V84.728C643.963 85.1653 644.038 85.4853 644.187 85.688C644.347 85.88 644.608 85.976 644.971 85.976C645.302 85.976 645.675 85.864 646.091 85.64L646.651 86.616ZM654.011 75.976V85.672H658.539L658.363 87H652.491V75.976H654.011ZM663.141 78.376C664.325 78.376 665.242 78.7707 665.893 79.56C666.554 80.3493 666.885 81.4213 666.885 82.776C666.885 83.6507 666.736 84.424 666.437 85.096C666.138 85.7573 665.706 86.2747 665.141 86.648C664.576 87.0107 663.904 87.192 663.125 87.192C661.941 87.192 661.018 86.7973 660.357 86.008C659.696 85.2187 659.365 84.1467 659.365 82.792C659.365 81.9173 659.514 81.1493 659.813 80.488C660.112 79.816 660.544 79.2987 661.109 78.936C661.674 78.5627 662.352 78.376 663.141 78.376ZM663.141 79.56C661.68 79.56 660.949 80.6373 660.949 82.792C660.949 84.936 661.674 86.008 663.125 86.008C664.576 86.008 665.301 84.9307 665.301 82.776C665.301 80.632 664.581 79.56 663.141 79.56ZM672.389 78.376C672.89 78.376 673.349 78.4507 673.765 78.6C674.181 78.7387 674.581 78.968 674.965 79.288L674.261 80.216C673.962 80.0027 673.669 79.848 673.381 79.752C673.104 79.6453 672.794 79.592 672.453 79.592C671.77 79.592 671.237 79.864 670.853 80.408C670.48 80.952 670.293 81.7573 670.293 82.824C670.293 83.8907 670.48 84.68 670.853 85.192C671.226 85.6933 671.76 85.944 672.453 85.944C672.784 85.944 673.088 85.896 673.365 85.8C673.642 85.6933 673.952 85.528 674.293 85.304L674.965 86.264C674.197 86.8827 673.338 87.192 672.389 87.192C671.248 87.192 670.346 86.808 669.685 86.04C669.034 85.272 668.709 84.2107 668.709 82.856C668.709 81.96 668.858 81.176 669.157 80.504C669.456 79.832 669.877 79.3093 670.421 78.936C670.976 78.5627 671.632 78.376 672.389 78.376ZM682.481 85.032C682.481 85.3733 682.54 85.6293 682.657 85.8C682.775 85.96 682.951 86.0827 683.185 86.168L682.849 87.192C682.412 87.1387 682.06 87.016 681.793 86.824C681.527 86.632 681.329 86.3333 681.201 85.928C680.636 86.7707 679.799 87.192 678.689 87.192C677.857 87.192 677.201 86.9573 676.721 86.488C676.241 86.0187 676.001 85.4053 676.001 84.648C676.001 83.752 676.321 83.064 676.961 82.584C677.612 82.104 678.529 81.864 679.713 81.864H681.009V81.24C681.009 80.6427 680.865 80.216 680.577 79.96C680.289 79.704 679.847 79.576 679.249 79.576C678.631 79.576 677.873 79.7253 676.977 80.024L676.609 78.952C677.655 78.568 678.625 78.376 679.521 78.376C680.513 78.376 681.255 78.6213 681.745 79.112C682.236 79.592 682.481 80.28 682.481 81.176V85.032ZM679.025 86.088C679.868 86.088 680.529 85.6507 681.009 84.776V82.84H679.905C678.348 82.84 677.569 83.416 677.569 84.568C677.569 85.0693 677.692 85.448 677.937 85.704C678.183 85.96 678.545 86.088 679.025 86.088ZM689.76 86.616C689.206 87 688.576 87.192 687.872 87.192C687.158 87.192 686.598 86.9893 686.192 86.584C685.798 86.168 685.6 85.5707 685.6 84.792V79.704H684.128V78.568H685.6V76.664L687.072 76.488V78.568H689.072L688.912 79.704H687.072V84.728C687.072 85.1653 687.147 85.4853 687.296 85.688C687.456 85.88 687.718 85.976 688.08 85.976C688.411 85.976 688.784 85.864 689.2 85.64L689.76 86.616ZM692.758 78.568V87H691.286V78.568H692.758ZM692.006 74.52C692.315 74.52 692.566 74.616 692.758 74.808C692.95 75 693.046 75.24 693.046 75.528C693.046 75.816 692.95 76.056 692.758 76.248C692.566 76.4293 692.315 76.52 692.006 76.52C691.707 76.52 691.462 76.4293 691.27 76.248C691.078 76.056 690.982 75.816 690.982 75.528C690.982 75.24 691.078 75 691.27 74.808C691.462 74.616 691.707 74.52 692.006 74.52ZM698.969 78.376C700.153 78.376 701.071 78.7707 701.721 79.56C702.383 80.3493 702.713 81.4213 702.713 82.776C702.713 83.6507 702.564 84.424 702.265 85.096C701.967 85.7573 701.535 86.2747 700.969 86.648C700.404 87.0107 699.732 87.192 698.953 87.192C697.769 87.192 696.847 86.7973 696.185 86.008C695.524 85.2187 695.193 84.1467 695.193 82.792C695.193 81.9173 695.343 81.1493 695.641 80.488C695.94 79.816 696.372 79.2987 696.937 78.936C697.503 78.5627 698.18 78.376 698.969 78.376ZM698.969 79.56C697.508 79.56 696.777 80.6373 696.777 82.792C696.777 84.936 697.503 86.008 698.953 86.008C700.404 86.008 701.129 84.9307 701.129 82.776C701.129 80.632 700.409 79.56 698.969 79.56ZM709.113 78.376C709.881 78.376 710.478 78.6053 710.905 79.064C711.342 79.5227 711.561 80.152 711.561 80.952V87H710.089V81.16C710.089 80.5627 709.977 80.1413 709.753 79.896C709.529 79.6507 709.198 79.528 708.761 79.528C708.313 79.528 707.918 79.656 707.577 79.912C707.236 80.168 706.916 80.536 706.617 81.016V87H705.145V78.568H706.409L706.537 79.816C706.836 79.368 707.204 79.016 707.641 78.76C708.089 78.504 708.58 78.376 709.113 78.376Z" fill="white"/>
</svg>
