<svg width="1002" height="496" viewBox="0 0 1002 496" fill="none" xmlns="http://www.w3.org/2000/svg">
<g opacity="0.29827">
<path d="M1008.08 163.448L443.182 -356.858V-747.19L28.1096 -770C24.9043 -762.456 4.36709 -740.714 7.57176 -728.596C11.43 -714.102 30.8387 -718.735 36.4776 -709.409C43.0661 -698.42 31.7291 -653.749 28.3457 -640.86C21.8759 -616.445 7.09676 -596.665 2.82235 -572.25C-4.35982 -531.263 10.1824 -534.53 37.7242 -508.927C84.141 -465.742 46.9244 -420.952 58.6176 -370.223C68.1146 -328.878 109.605 -307.554 124.8 -266.211C136.553 -234.37 152.697 -226.233 177.746 -202.947C177.153 -217.084 164.51 -258.785 188.253 -255.102C211.817 -251.478 202.736 -216.669 207.247 -202.115C211.045 -189.997 237.933 -165.761 215.616 -154.593C208.196 -150.91 187.066 -165.582 178.577 -169.503C184.572 -150.791 180.774 -131.367 190.271 -113.487C201.608 -92.162 213.835 -100.359 228.853 -88.7754C244.344 -76.8355 242.683 -63.1137 235.797 -45.0554C228.615 -26.2247 221.196 -29.1352 232.592 -6.44342C240.843 9.95119 254.85 30.7421 266.9 43.2164C273.904 50.4634 281.502 52.1267 288.506 61.3932C294.323 69.1155 292.067 79.2142 299.012 86.1638C310.883 98.1037 331.006 98.282 340.384 113.904C350.831 131.309 338.96 144.437 369.706 142.833C371.309 177.643 377.897 209.185 377.541 243.994C394.695 250.825 422.414 242.687 440.399 239.063C458.266 263.18 481.355 246.429 501.774 259.558C510.678 265.26 508.837 279.517 514.239 284.506C525.339 294.723 533.529 288.308 547.301 291.872C557.51 294.486 565.404 301.97 575.138 304.703C584.338 307.257 599.475 301.258 606.301 309.396C614.492 319.138 600.78 336.958 613.127 344.799C623.395 351.333 638.115 335.77 648.088 338.027C659.721 340.7 693.079 371.174 701.271 381.212C710.59 392.677 719.969 414.062 725.25 428.793C733.501 451.841 732.373 463.127 749.408 479.998C760.27 490.75 749.942 491.522 767.63 494.67C779.204 496.749 794.518 488.374 806.212 487.067C830.549 484.394 855.122 489.027 879.102 484.453C901.421 480.176 922.729 473.166 945.64 469.899C965.465 467.048 1000.37 469.246 1017.94 459.801C1036.99 449.643 1038.71 426.654 1011.17 430.932C1008.97 416.26 1018.77 396.003 1007.85 385.847C1023.04 365.056 1028.56 350.384 1030.93 324.959C1032 313.792 1032.48 301.436 1038 292.05C1043.4 282.783 1058.59 277.259 1061.56 269.299C1066.13 256.943 1058.83 251.419 1053.25 244.528C1049.69 240.073 1039.54 242.212 1036.63 238.291C1031.23 231.103 1036.57 223.678 1033.6 216.431C1024.94 195.462 1014.61 187.205 1008.08 163.444C1008.26 167.424 1008.44 171.463 1008.2 175.384" stroke="white" stroke-width="2" stroke-linecap="round" stroke-linejoin="round"/>
</g>
<path d="M728 90C683.2 134.8 706.833 175.5 725.5 189.5C741 201.125 746 224 728 242C705.5 264.5 669 266 669 301C669 329 666.667 353.667 665.5 362.5" stroke="white" stroke-width="2"/>
<path fill-rule="evenodd" clip-rule="evenodd" d="M570 319C571.657 319 573 317.657 573 316C573 314.343 571.657 313 570 313C568.343 313 567 314.343 567 316C567 317.657 568.343 319 570 319Z" fill="#4AF6CD"/>
<path fill-rule="evenodd" clip-rule="evenodd" d="M664.5 370C668.09 370 671 367.09 671 363.5C671 359.91 668.09 357 664.5 357C660.91 357 658 359.91 658 363.5C658 367.09 660.91 370 664.5 370Z" fill="#4AF6CD"/>
<path fill-rule="evenodd" clip-rule="evenodd" d="M725 471C726.657 471 728 469.657 728 468C728 466.343 726.657 465 725 465C723.343 465 722 466.343 722 468C722 469.657 723.343 471 725 471Z" fill="#4AF6CD"/>
<path fill-rule="evenodd" clip-rule="evenodd" d="M729.5 91C733.09 91 736 88.0899 736 84.5C736 80.9101 733.09 78 729.5 78C725.91 78 723 80.9101 723 84.5C723 88.0899 725.91 91 729.5 91Z" fill="#4AF6CD"/>
<path fill-rule="evenodd" clip-rule="evenodd" d="M365 228C366.657 228 368 226.657 368 225C368 223.343 366.657 222 365 222C363.343 222 362 223.343 362 225C362 226.657 363.343 228 365 228Z" fill="#4AF6CD"/>
<path d="M473.414 354.784C474.15 354.784 474.779 354.891 475.302 355.104C475.824 355.307 476.331 355.627 476.822 356.064L475.99 356.992C475.574 356.661 475.163 356.421 474.758 356.272C474.363 356.112 473.936 356.032 473.478 356.032C472.902 356.032 472.427 356.165 472.054 356.432C471.68 356.699 471.494 357.088 471.494 357.6C471.494 357.92 471.558 358.192 471.686 358.416C471.814 358.629 472.048 358.827 472.39 359.008C472.742 359.189 473.248 359.381 473.91 359.584C474.603 359.797 475.179 360.027 475.638 360.272C476.096 360.517 476.464 360.859 476.742 361.296C477.03 361.723 477.174 362.267 477.174 362.928C477.174 363.568 477.014 364.133 476.694 364.624C476.384 365.115 475.931 365.499 475.334 365.776C474.747 366.053 474.048 366.192 473.238 366.192C471.712 366.192 470.464 365.717 469.494 364.768L470.326 363.84C470.774 364.203 471.227 364.48 471.686 364.672C472.144 364.853 472.656 364.944 473.222 364.944C473.904 364.944 474.47 364.779 474.918 364.448C475.366 364.107 475.59 363.616 475.59 362.976C475.59 362.613 475.52 362.315 475.382 362.08C475.243 361.835 475.003 361.616 474.662 361.424C474.331 361.232 473.846 361.04 473.206 360.848C472.075 360.507 471.248 360.096 470.726 359.616C470.203 359.136 469.942 358.485 469.942 357.664C469.942 357.109 470.086 356.613 470.374 356.176C470.672 355.739 471.083 355.397 471.606 355.152C472.139 354.907 472.742 354.784 473.414 354.784ZM482.501 357.376C483.685 357.376 484.602 357.771 485.253 358.56C485.914 359.349 486.245 360.421 486.245 361.776C486.245 362.651 486.095 363.424 485.797 364.096C485.498 364.757 485.066 365.275 484.501 365.648C483.935 366.011 483.263 366.192 482.485 366.192C481.301 366.192 480.378 365.797 479.717 365.008C479.055 364.219 478.725 363.147 478.725 361.792C478.725 360.917 478.874 360.149 479.173 359.488C479.471 358.816 479.903 358.299 480.469 357.936C481.034 357.563 481.711 357.376 482.501 357.376ZM482.501 358.56C481.039 358.56 480.309 359.637 480.309 361.792C480.309 363.936 481.034 365.008 482.485 365.008C483.935 365.008 484.661 363.931 484.661 361.776C484.661 359.632 483.941 358.56 482.501 358.56ZM494.948 366H493.684L493.572 364.688C493.252 365.211 492.884 365.595 492.468 365.84C492.052 366.075 491.546 366.192 490.948 366.192C490.212 366.192 489.636 365.968 489.22 365.52C488.804 365.072 488.596 364.437 488.596 363.616V357.568H490.068V363.456C490.068 364.032 490.17 364.443 490.372 364.688C490.575 364.923 490.906 365.04 491.364 365.04C492.186 365.04 492.89 364.555 493.476 363.584V357.568H494.948V366ZM502.245 365.616C501.69 366 501.061 366.192 500.357 366.192C499.642 366.192 499.082 365.989 498.677 365.584C498.282 365.168 498.085 364.571 498.085 363.792V358.704H496.613V357.568H498.085V355.664L499.557 355.488V357.568H501.557L501.397 358.704H499.557V363.728C499.557 364.165 499.631 364.485 499.781 364.688C499.941 364.88 500.202 364.976 500.565 364.976C500.895 364.976 501.269 364.864 501.685 364.64L502.245 365.616ZM507.738 357.376C508.506 357.376 509.103 357.605 509.53 358.064C509.967 358.523 510.186 359.152 510.186 359.952V366H508.714V360.16C508.714 359.563 508.597 359.141 508.362 358.896C508.138 358.651 507.807 358.528 507.37 358.528C506.933 358.528 506.543 358.656 506.202 358.912C505.861 359.168 505.541 359.531 505.242 360V366H503.77V354.192L505.242 354.032V358.736C505.903 357.829 506.735 357.376 507.738 357.376ZM520.179 354.784C520.915 354.784 521.545 354.891 522.067 355.104C522.59 355.307 523.097 355.627 523.587 356.064L522.755 356.992C522.339 356.661 521.929 356.421 521.523 356.272C521.129 356.112 520.702 356.032 520.243 356.032C519.667 356.032 519.193 356.165 518.819 356.432C518.446 356.699 518.259 357.088 518.259 357.6C518.259 357.92 518.323 358.192 518.451 358.416C518.579 358.629 518.814 358.827 519.155 359.008C519.507 359.189 520.014 359.381 520.675 359.584C521.369 359.797 521.945 360.027 522.403 360.272C522.862 360.517 523.23 360.859 523.507 361.296C523.795 361.723 523.939 362.267 523.939 362.928C523.939 363.568 523.779 364.133 523.459 364.624C523.15 365.115 522.697 365.499 522.099 365.776C521.513 366.053 520.814 366.192 520.003 366.192C518.478 366.192 517.23 365.717 516.259 364.768L517.091 363.84C517.539 364.203 517.993 364.48 518.451 364.672C518.91 364.853 519.422 364.944 519.987 364.944C520.67 364.944 521.235 364.779 521.683 364.448C522.131 364.107 522.355 363.616 522.355 362.976C522.355 362.613 522.286 362.315 522.147 362.08C522.009 361.835 521.769 361.616 521.427 361.424C521.097 361.232 520.611 361.04 519.971 360.848C518.841 360.507 518.014 360.096 517.491 359.616C516.969 359.136 516.707 358.485 516.707 357.664C516.707 357.109 516.851 356.613 517.139 356.176C517.438 355.739 517.849 355.397 518.371 355.152C518.905 354.907 519.507 354.784 520.179 354.784ZM530.066 357.376C530.834 357.376 531.431 357.605 531.858 358.064C532.295 358.523 532.514 359.152 532.514 359.952V366H531.042V360.16C531.042 359.563 530.925 359.141 530.69 358.896C530.466 358.651 530.135 358.528 529.698 358.528C529.261 358.528 528.871 358.656 528.53 358.912C528.189 359.168 527.869 359.531 527.57 360V366H526.098V354.192L527.57 354.032V358.736C528.231 357.829 529.063 357.376 530.066 357.376ZM538.641 357.376C539.825 357.376 540.742 357.771 541.393 358.56C542.054 359.349 542.385 360.421 542.385 361.776C542.385 362.651 542.236 363.424 541.937 364.096C541.638 364.757 541.206 365.275 540.641 365.648C540.076 366.011 539.404 366.192 538.625 366.192C537.441 366.192 536.518 365.797 535.857 365.008C535.196 364.219 534.865 363.147 534.865 361.792C534.865 360.917 535.014 360.149 535.313 359.488C535.612 358.816 536.044 358.299 536.609 357.936C537.174 357.563 537.852 357.376 538.641 357.376ZM538.641 358.56C537.18 358.56 536.449 359.637 536.449 361.792C536.449 363.936 537.174 365.008 538.625 365.008C540.076 365.008 540.801 363.931 540.801 361.776C540.801 359.632 540.081 358.56 538.641 358.56ZM548.481 357.376C548.78 357.376 549.057 357.408 549.313 357.472L549.041 358.912C548.785 358.848 548.54 358.816 548.305 358.816C547.782 358.816 547.361 359.008 547.041 359.392C546.721 359.776 546.47 360.373 546.289 361.184V366H544.817V357.568H546.081L546.225 359.28C546.449 358.651 546.753 358.176 547.137 357.856C547.521 357.536 547.969 357.376 548.481 357.376ZM556.872 361.536C556.872 361.781 556.862 362.032 556.84 362.288H551.464C551.528 363.216 551.763 363.899 552.168 364.336C552.574 364.773 553.096 364.992 553.736 364.992C554.142 364.992 554.515 364.933 554.856 364.816C555.198 364.699 555.555 364.512 555.928 364.256L556.568 365.136C555.672 365.84 554.691 366.192 553.624 366.192C552.451 366.192 551.534 365.808 550.872 365.04C550.222 364.272 549.896 363.216 549.896 361.872C549.896 360.997 550.035 360.224 550.312 359.552C550.6 358.869 551.006 358.336 551.528 357.952C552.062 357.568 552.686 357.376 553.4 357.376C554.52 357.376 555.379 357.744 555.976 358.48C556.574 359.216 556.872 360.235 556.872 361.536ZM555.416 361.104C555.416 360.272 555.251 359.637 554.92 359.2C554.59 358.763 554.094 358.544 553.432 358.544C552.227 358.544 551.571 359.429 551.464 361.2H555.416V361.104ZM565.41 353.184V367.568H565.058V353.184H565.41ZM584.237 366H582.765L582.381 361.024C582.221 359.072 582.131 357.573 582.109 356.528L579.725 364.752H578.301L575.789 356.512C575.789 357.845 575.72 359.387 575.581 361.136L575.213 366H573.773L574.685 354.976H576.733L579.053 362.992L581.261 354.976H583.325L584.237 366ZM592.434 364.032C592.434 364.373 592.493 364.629 592.61 364.8C592.728 364.96 592.904 365.083 593.138 365.168L592.802 366.192C592.365 366.139 592.013 366.016 591.746 365.824C591.48 365.632 591.282 365.333 591.154 364.928C590.589 365.771 589.752 366.192 588.642 366.192C587.81 366.192 587.154 365.957 586.674 365.488C586.194 365.019 585.954 364.405 585.954 363.648C585.954 362.752 586.274 362.064 586.914 361.584C587.565 361.104 588.482 360.864 589.666 360.864H590.962V360.24C590.962 359.643 590.818 359.216 590.53 358.96C590.242 358.704 589.8 358.576 589.202 358.576C588.584 358.576 587.826 358.725 586.93 359.024L586.562 357.952C587.608 357.568 588.578 357.376 589.474 357.376C590.466 357.376 591.208 357.621 591.698 358.112C592.189 358.592 592.434 359.28 592.434 360.176V364.032ZM588.978 365.088C589.821 365.088 590.482 364.651 590.962 363.776V361.84H589.858C588.301 361.84 587.522 362.416 587.522 363.568C587.522 364.069 587.645 364.448 587.89 364.704C588.136 364.96 588.498 365.088 588.978 365.088ZM596.981 366.192C596.437 366.192 596.005 366.032 595.685 365.712C595.376 365.381 595.221 364.923 595.221 364.336V354.176L596.693 354V364.304C596.693 364.539 596.731 364.709 596.805 364.816C596.891 364.923 597.029 364.976 597.221 364.976C597.424 364.976 597.605 364.944 597.765 364.88L598.149 365.904C597.797 366.096 597.408 366.192 596.981 366.192ZM601.461 357.568V366H599.989V357.568H601.461ZM600.709 353.52C601.018 353.52 601.269 353.616 601.461 353.808C601.653 354 601.749 354.24 601.749 354.528C601.749 354.816 601.653 355.056 601.461 355.248C601.269 355.429 601.018 355.52 600.709 355.52C600.41 355.52 600.165 355.429 599.973 355.248C599.781 355.056 599.685 354.816 599.685 354.528C599.685 354.24 599.781 354 599.973 353.808C600.165 353.616 600.41 353.52 600.709 353.52ZM608.36 357.376C609.32 357.376 610.083 357.765 610.648 358.544C611.214 359.312 611.496 360.389 611.496 361.776C611.496 362.651 611.363 363.424 611.096 364.096C610.83 364.757 610.446 365.275 609.944 365.648C609.443 366.011 608.856 366.192 608.184 366.192C607.299 366.192 606.552 365.819 605.944 365.072L605.8 366H604.504V354.176L605.976 354V358.624C606.584 357.792 607.379 357.376 608.36 357.376ZM607.832 365.024C608.483 365.024 608.99 364.763 609.352 364.24C609.726 363.707 609.912 362.885 609.912 361.776C609.912 360.635 609.742 359.813 609.4 359.312C609.059 358.8 608.574 358.544 607.944 358.544C607.198 358.544 606.542 358.981 605.976 359.856V363.888C606.2 364.24 606.472 364.517 606.792 364.72C607.123 364.923 607.47 365.024 607.832 365.024ZM620.276 366H619.012L618.9 364.688C618.58 365.211 618.212 365.595 617.796 365.84C617.38 366.075 616.874 366.192 616.276 366.192C615.54 366.192 614.964 365.968 614.548 365.52C614.132 365.072 613.924 364.437 613.924 363.616V357.568H615.396V363.456C615.396 364.032 615.498 364.443 615.7 364.688C615.903 364.923 616.234 365.04 616.692 365.04C617.514 365.04 618.218 364.555 618.804 363.584V357.568H620.276V366ZM623.701 363.968C624.021 363.968 624.288 364.075 624.501 364.288C624.714 364.501 624.821 364.763 624.821 365.072C624.821 365.403 624.725 365.781 624.533 366.208L623.461 368.656H622.405L623.045 366C622.906 365.893 622.794 365.76 622.709 365.6C622.634 365.44 622.597 365.264 622.597 365.072C622.597 364.763 622.704 364.501 622.917 364.288C623.13 364.075 623.392 363.968 623.701 363.968ZM635.331 354.784C635.992 354.784 636.547 354.869 636.995 355.04C637.454 355.211 637.918 355.488 638.387 355.872L637.555 356.848C636.883 356.304 636.174 356.032 635.427 356.032C634.51 356.032 633.768 356.384 633.203 357.088C632.648 357.792 632.371 358.923 632.371 360.48C632.371 361.995 632.648 363.115 633.203 363.84C633.758 364.555 634.494 364.912 635.411 364.912C635.88 364.912 636.291 364.832 636.643 364.672C636.995 364.512 637.368 364.288 637.763 364L638.515 364.96C638.174 365.312 637.736 365.605 637.203 365.84C636.67 366.075 636.056 366.192 635.363 366.192C634.467 366.192 633.667 365.973 632.963 365.536C632.27 365.088 631.726 364.437 631.331 363.584C630.947 362.72 630.755 361.685 630.755 360.48C630.755 359.275 630.958 358.245 631.363 357.392C631.768 356.528 632.318 355.877 633.011 355.44C633.704 355.003 634.478 354.784 635.331 354.784ZM646.3 366L645.468 363.232H641.292L640.46 366H638.924L642.46 354.976H644.38L647.9 366H646.3ZM641.66 362H645.1L643.388 356.24L641.66 362Z" fill="white"/>
<path d="M598.378 75.784C599.039 75.784 599.594 75.8693 600.042 76.04C600.501 76.2107 600.965 76.488 601.434 76.872L600.602 77.848C599.93 77.304 599.221 77.032 598.474 77.032C597.557 77.032 596.815 77.384 596.25 78.088C595.695 78.792 595.418 79.9227 595.418 81.48C595.418 82.9947 595.695 84.1147 596.25 84.84C596.805 85.5547 597.541 85.912 598.458 85.912C598.927 85.912 599.338 85.832 599.69 85.672C600.042 85.512 600.415 85.288 600.81 85L601.562 85.96C601.221 86.312 600.783 86.6053 600.25 86.84C599.717 87.0747 599.103 87.192 598.41 87.192C597.514 87.192 596.714 86.9733 596.01 86.536C595.317 86.088 594.773 85.4373 594.378 84.584C593.994 83.72 593.802 82.6853 593.802 81.48C593.802 80.2747 594.005 79.2453 594.41 78.392C594.815 77.528 595.365 76.8773 596.058 76.44C596.751 76.0027 597.525 75.784 598.378 75.784ZM609.401 87H608.137L608.025 85.688C607.705 86.2107 607.337 86.5947 606.921 86.84C606.505 87.0747 605.999 87.192 605.401 87.192C604.665 87.192 604.089 86.968 603.673 86.52C603.257 86.072 603.049 85.4373 603.049 84.616V78.568H604.521V84.456C604.521 85.032 604.623 85.4427 604.825 85.688C605.028 85.9227 605.359 86.04 605.817 86.04C606.639 86.04 607.343 85.5547 607.929 84.584V78.568H609.401V87ZM616.106 78.376C616.405 78.376 616.682 78.408 616.938 78.472L616.666 79.912C616.41 79.848 616.165 79.816 615.93 79.816C615.407 79.816 614.986 80.008 614.666 80.392C614.346 80.776 614.095 81.3733 613.914 82.184V87H612.442V78.568H613.706L613.85 80.28C614.074 79.6507 614.378 79.176 614.762 78.856C615.146 78.536 615.594 78.376 616.106 78.376ZM622.278 78.376C622.576 78.376 622.854 78.408 623.11 78.472L622.838 79.912C622.582 79.848 622.336 79.816 622.102 79.816C621.579 79.816 621.158 80.008 620.838 80.392C620.518 80.776 620.267 81.3733 620.086 82.184V87H618.614V78.568H619.878L620.022 80.28C620.246 79.6507 620.55 79.176 620.934 78.856C621.318 78.536 621.766 78.376 622.278 78.376ZM630.669 82.536C630.669 82.7813 630.659 83.032 630.637 83.288H625.261C625.325 84.216 625.56 84.8987 625.965 85.336C626.371 85.7733 626.893 85.992 627.533 85.992C627.939 85.992 628.312 85.9333 628.653 85.816C628.995 85.6987 629.352 85.512 629.725 85.256L630.365 86.136C629.469 86.84 628.488 87.192 627.421 87.192C626.248 87.192 625.331 86.808 624.669 86.04C624.019 85.272 623.693 84.216 623.693 82.872C623.693 81.9973 623.832 81.224 624.109 80.552C624.397 79.8693 624.803 79.336 625.325 78.952C625.859 78.568 626.483 78.376 627.197 78.376C628.317 78.376 629.176 78.744 629.773 79.48C630.371 80.216 630.669 81.2347 630.669 82.536ZM629.213 82.104C629.213 81.272 629.048 80.6373 628.717 80.2C628.387 79.7627 627.891 79.544 627.229 79.544C626.024 79.544 625.368 80.4293 625.261 82.2H629.213V82.104ZM636.988 78.376C637.756 78.376 638.353 78.6053 638.78 79.064C639.217 79.5227 639.436 80.152 639.436 80.952V87H637.964V81.16C637.964 80.5627 637.852 80.1413 637.628 79.896C637.404 79.6507 637.073 79.528 636.636 79.528C636.188 79.528 635.793 79.656 635.452 79.912C635.111 80.168 634.791 80.536 634.492 81.016V87H633.02V78.568H634.284L634.412 79.816C634.711 79.368 635.079 79.016 635.516 78.76C635.964 78.504 636.455 78.376 636.988 78.376ZM646.651 86.616C646.096 87 645.467 87.192 644.763 87.192C644.048 87.192 643.488 86.9893 643.083 86.584C642.688 86.168 642.491 85.5707 642.491 84.792V79.704H641.019V78.568H642.491V76.664L643.963 76.488V78.568H645.963L645.803 79.704H643.963V84.728C643.963 85.1653 644.038 85.4853 644.187 85.688C644.347 85.88 644.608 85.976 644.971 85.976C645.302 85.976 645.675 85.864 646.091 85.64L646.651 86.616ZM654.011 75.976V85.672H658.539L658.363 87H652.491V75.976H654.011ZM663.141 78.376C664.325 78.376 665.242 78.7707 665.893 79.56C666.554 80.3493 666.885 81.4213 666.885 82.776C666.885 83.6507 666.736 84.424 666.437 85.096C666.138 85.7573 665.706 86.2747 665.141 86.648C664.576 87.0107 663.904 87.192 663.125 87.192C661.941 87.192 661.018 86.7973 660.357 86.008C659.696 85.2187 659.365 84.1467 659.365 82.792C659.365 81.9173 659.514 81.1493 659.813 80.488C660.112 79.816 660.544 79.2987 661.109 78.936C661.674 78.5627 662.352 78.376 663.141 78.376ZM663.141 79.56C661.68 79.56 660.949 80.6373 660.949 82.792C660.949 84.936 661.674 86.008 663.125 86.008C664.576 86.008 665.301 84.9307 665.301 82.776C665.301 80.632 664.581 79.56 663.141 79.56ZM672.389 78.376C672.89 78.376 673.349 78.4507 673.765 78.6C674.181 78.7387 674.581 78.968 674.965 79.288L674.261 80.216C673.962 80.0027 673.669 79.848 673.381 79.752C673.104 79.6453 672.794 79.592 672.453 79.592C671.77 79.592 671.237 79.864 670.853 80.408C670.48 80.952 670.293 81.7573 670.293 82.824C670.293 83.8907 670.48 84.68 670.853 85.192C671.226 85.6933 671.76 85.944 672.453 85.944C672.784 85.944 673.088 85.896 673.365 85.8C673.642 85.6933 673.952 85.528 674.293 85.304L674.965 86.264C674.197 86.8827 673.338 87.192 672.389 87.192C671.248 87.192 670.346 86.808 669.685 86.04C669.034 85.272 668.709 84.2107 668.709 82.856C668.709 81.96 668.858 81.176 669.157 80.504C669.456 79.832 669.877 79.3093 670.421 78.936C670.976 78.5627 671.632 78.376 672.389 78.376ZM682.481 85.032C682.481 85.3733 682.54 85.6293 682.657 85.8C682.775 85.96 682.951 86.0827 683.185 86.168L682.849 87.192C682.412 87.1387 682.06 87.016 681.793 86.824C681.527 86.632 681.329 86.3333 681.201 85.928C680.636 86.7707 679.799 87.192 678.689 87.192C677.857 87.192 677.201 86.9573 676.721 86.488C676.241 86.0187 676.001 85.4053 676.001 84.648C676.001 83.752 676.321 83.064 676.961 82.584C677.612 82.104 678.529 81.864 679.713 81.864H681.009V81.24C681.009 80.6427 680.865 80.216 680.577 79.96C680.289 79.704 679.847 79.576 679.249 79.576C678.631 79.576 677.873 79.7253 676.977 80.024L676.609 78.952C677.655 78.568 678.625 78.376 679.521 78.376C680.513 78.376 681.255 78.6213 681.745 79.112C682.236 79.592 682.481 80.28 682.481 81.176V85.032ZM679.025 86.088C679.868 86.088 680.529 85.6507 681.009 84.776V82.84H679.905C678.348 82.84 677.569 83.416 677.569 84.568C677.569 85.0693 677.692 85.448 677.937 85.704C678.183 85.96 678.545 86.088 679.025 86.088ZM689.76 86.616C689.206 87 688.576 87.192 687.872 87.192C687.158 87.192 686.598 86.9893 686.192 86.584C685.798 86.168 685.6 85.5707 685.6 84.792V79.704H684.128V78.568H685.6V76.664L687.072 76.488V78.568H689.072L688.912 79.704H687.072V84.728C687.072 85.1653 687.147 85.4853 687.296 85.688C687.456 85.88 687.718 85.976 688.08 85.976C688.411 85.976 688.784 85.864 689.2 85.64L689.76 86.616ZM692.758 78.568V87H691.286V78.568H692.758ZM692.006 74.52C692.315 74.52 692.566 74.616 692.758 74.808C692.95 75 693.046 75.24 693.046 75.528C693.046 75.816 692.95 76.056 692.758 76.248C692.566 76.4293 692.315 76.52 692.006 76.52C691.707 76.52 691.462 76.4293 691.27 76.248C691.078 76.056 690.982 75.816 690.982 75.528C690.982 75.24 691.078 75 691.27 74.808C691.462 74.616 691.707 74.52 692.006 74.52ZM698.969 78.376C700.153 78.376 701.071 78.7707 701.721 79.56C702.383 80.3493 702.713 81.4213 702.713 82.776C702.713 83.6507 702.564 84.424 702.265 85.096C701.967 85.7573 701.535 86.2747 700.969 86.648C700.404 87.0107 699.732 87.192 698.953 87.192C697.769 87.192 696.847 86.7973 696.185 86.008C695.524 85.2187 695.193 84.1467 695.193 82.792C695.193 81.9173 695.343 81.1493 695.641 80.488C695.94 79.816 696.372 79.2987 696.937 78.936C697.503 78.5627 698.18 78.376 698.969 78.376ZM698.969 79.56C697.508 79.56 696.777 80.6373 696.777 82.792C696.777 84.936 697.503 86.008 698.953 86.008C700.404 86.008 701.129 84.9307 701.129 82.776C701.129 80.632 700.409 79.56 698.969 79.56ZM709.113 78.376C709.881 78.376 710.478 78.6053 710.905 79.064C711.342 79.5227 711.561 80.152 711.561 80.952V87H710.089V81.16C710.089 80.5627 709.977 80.1413 709.753 79.896C709.529 79.6507 709.198 79.528 708.761 79.528C708.313 79.528 707.918 79.656 707.577 79.912C707.236 80.168 706.916 80.536 706.617 81.016V87H705.145V78.568H706.409L706.537 79.816C706.836 79.368 707.204 79.016 707.641 78.76C708.089 78.504 708.58 78.376 709.113 78.376Z" fill="white"/>
</svg>
